<svg width="36" height="35" viewBox="0 0 36 35" fill="none" xmlns="http://www.w3.org/2000/svg">
<path d="M18.3 13.3328C17.4759 13.3331 16.6703 13.5778 15.9852 14.0359C15.3002 14.494 14.7663 15.1449 14.4511 15.9064C14.136 16.6678 14.0537 17.5057 14.2146 18.3139C14.3756 19.1222 14.7726 19.8646 15.3555 20.4472C15.9383 21.0298 16.6808 21.4266 17.4891 21.5872C18.2975 21.7479 19.1353 21.6653 19.8966 21.3498C20.658 21.0344 21.3087 20.5003 21.7665 19.815C22.2244 19.1297 22.4687 18.3241 22.4687 17.5C22.4679 16.3948 22.0284 15.3351 21.2467 14.5537C20.4651 13.7724 19.4052 13.3332 18.3 13.3328ZM28.043 10.1297C27.8308 9.59206 27.5105 9.10377 27.1018 8.69508C26.6931 8.2864 26.2048 7.96605 25.6672 7.75391C24.0265 7.10625 20.1203 7.25156 18.3 7.25156C16.4797 7.25156 12.5773 7.10078 10.932 7.75391C10.3944 7.96605 9.9061 8.2864 9.49741 8.69508C9.08873 9.10377 8.76838 9.59206 8.55624 10.1297C7.90936 11.7703 8.05389 15.6805 8.05389 17.4992C8.05389 19.318 7.90936 23.2234 8.55936 24.8695C8.77151 25.4072 9.09186 25.8955 9.50054 26.3041C9.90922 26.7128 10.3975 27.0332 10.9351 27.2453C12.5758 27.893 16.482 27.7477 18.3031 27.7477C20.1242 27.7477 24.025 27.8984 25.6703 27.2453C26.2079 27.0332 26.6962 26.7128 27.1049 26.3041C27.5136 25.8955 27.8339 25.4072 28.0461 24.8695C28.6984 23.2289 28.5484 19.3188 28.5484 17.5C28.5484 15.6812 28.6984 11.7766 28.0461 10.1305L28.043 10.1297ZM18.3 23.9062C17.033 23.9062 15.7944 23.5305 14.7409 22.8266C13.6874 22.1227 12.8663 21.1222 12.3814 19.9516C11.8965 18.781 11.7696 17.4929 12.0168 16.2502C12.264 15.0075 12.8742 13.866 13.7701 12.9701C14.666 12.0742 15.8075 11.464 17.0502 11.2168C18.2929 10.9697 19.581 11.0965 20.7516 11.5814C21.9221 12.0663 22.9227 12.8874 23.6266 13.9409C24.3305 14.9944 24.7062 16.233 24.7062 17.5C24.7073 18.3416 24.5423 19.1751 24.2207 19.9528C23.8991 20.7305 23.4273 21.4371 22.8322 22.0322C22.2371 22.6273 21.5305 23.0991 20.7528 23.4207C19.9751 23.7423 19.1416 23.9073 18.3 23.9062ZM24.9703 12.3203C24.6745 12.3205 24.3853 12.2329 24.1393 12.0687C23.8933 11.9045 23.7016 11.671 23.5883 11.3978C23.475 11.1246 23.4452 10.8239 23.5028 10.5338C23.5605 10.2436 23.7028 9.97713 23.9119 9.76793C24.121 9.55873 24.3874 9.41624 24.6775 9.35848C24.9676 9.30072 25.2683 9.33028 25.5416 9.44344C25.8148 9.55659 26.0484 9.74825 26.2128 9.99417C26.3771 10.2401 26.4648 10.5292 26.4648 10.825C26.4657 11.0214 26.4277 11.2161 26.3531 11.3978C26.2785 11.5795 26.1688 11.7447 26.0303 11.8839C25.8917 12.0231 25.727 12.1336 25.5457 12.209C25.3643 12.2845 25.1698 12.3233 24.9734 12.3234L24.9703 12.3203ZM32.05 0H4.54999C3.55543 0 2.6016 0.395088 1.89834 1.09835C1.19508 1.80161 0.799988 2.75544 0.799988 3.75L0.799988 31.25C0.799988 32.2446 1.19508 33.1984 1.89834 33.9017C2.6016 34.6049 3.55543 35 4.54999 35H32.05C33.0445 35 33.9984 34.6049 34.7016 33.9017C35.4049 33.1984 35.8 32.2446 35.8 31.25V3.75C35.8 2.75544 35.4049 1.80161 34.7016 1.09835C33.9984 0.395088 33.0445 0 32.05 0ZM30.7125 22.6562C30.6117 24.6586 30.1547 26.4328 28.693 27.8906C27.2312 29.3484 25.4586 29.8148 23.4586 29.9102C21.3953 30.0266 15.2094 30.0266 13.1461 29.9102C11.1437 29.8094 9.37577 29.3516 7.91171 27.8906C6.44764 26.4297 5.98749 24.6547 5.89218 22.6562C5.77577 20.5922 5.77577 14.4055 5.89218 12.3438C5.99296 10.3414 6.44452 8.56719 7.91171 7.10938C9.37889 5.65156 11.1516 5.19063 13.1461 5.09531C15.2094 4.97891 21.3953 4.97891 23.4586 5.09531C25.4609 5.19609 27.2344 5.65391 28.693 7.11484C30.1516 8.57578 30.6172 10.3508 30.7125 12.3531C30.8289 14.4094 30.8289 20.5906 30.7125 22.6562Z" fill="white"/>
</svg>
