<svg width="36" height="35" viewBox="0 0 36 35" fill="none" xmlns="http://www.w3.org/2000/svg">
<g clip-path="url(#clip0_8_6)">
<path d="M17.7615 4.375C10.5154 4.375 4.63647 10.2539 4.63647 17.5C4.63647 24.7461 10.5154 30.625 17.7615 30.625C18.9714 30.625 19.949 31.6025 19.949 32.8125C19.949 34.0225 18.9714 35 17.7615 35C8.09546 35 0.261475 27.166 0.261475 17.5C0.261475 7.83398 8.09546 0 17.7615 0C27.4275 0 35.2615 7.83398 35.2615 17.5V19.6875C35.2615 23.3105 32.322 26.25 28.699 26.25C26.696 26.25 24.8982 25.3477 23.6951 23.9326C22.1365 25.3682 20.0515 26.25 17.7615 26.25C12.9285 26.25 9.01147 22.333 9.01147 17.5C9.01147 12.667 12.9285 8.75 17.7615 8.75C19.6687 8.75 21.4324 9.3584 22.8679 10.3975C23.2576 10.0557 23.7634 9.84375 24.324 9.84375C25.5339 9.84375 26.5115 10.8213 26.5115 12.0312V17.5V19.6875C26.5115 20.8975 27.489 21.875 28.699 21.875C29.9089 21.875 30.8865 20.8975 30.8865 19.6875V17.5C30.8865 10.2539 25.0076 4.375 17.7615 4.375ZM22.1365 17.5C22.1365 16.3397 21.6755 15.2269 20.8551 14.4064C20.0346 13.5859 18.9218 13.125 17.7615 13.125C16.6012 13.125 15.4884 13.5859 14.6679 14.4064C13.8474 15.2269 13.3865 16.3397 13.3865 17.5C13.3865 18.6603 13.8474 19.7731 14.6679 20.5936C15.4884 21.4141 16.6012 21.875 17.7615 21.875C18.9218 21.875 20.0346 21.4141 20.8551 20.5936C21.6755 19.7731 22.1365 18.6603 22.1365 17.5Z" fill="white"/>
</g>
<defs>
<clipPath id="clip0_8_6">
<rect width="35" height="35" fill="white" transform="translate(0.261475)"/>
</clipPath>
</defs>
</svg>
