<?xml version="1.0" encoding="UTF-8"?>
<svg id="Layer_1" xmlns="http://www.w3.org/2000/svg" version="1.1" xmlns:xlink="http://www.w3.org/1999/xlink" viewBox="0 0 127.4 112.9">
  <!-- Generator: Adobe Illustrator 29.0.1, SVG Export Plug-In . SVG Version: 2.1.0 Build 192)  -->
  <defs>
    <style>
      .st0 {
        fill: url(#radial-gradient1);
      }

      .st0, .st1, .st2, .st3, .st4 {
        fill-rule: evenodd;
      }

      .st1 {
        fill: url(#radial-gradient3);
      }

      .st5 {
        fill: #fff;
      }

      .st2 {
        fill: url(#radial-gradient2);
      }

      .st3 {
        fill: url(#radial-gradient4);
      }

      .st6 {
        fill: #f9b12a;
      }

      .st4 {
        fill: url(#radial-gradient);
      }
    </style>
    <radialGradient id="radial-gradient" cx="68.5" cy="-12.3" fx="68.5" fy="-12.3" r="41.3" gradientUnits="userSpaceOnUse">
      <stop offset=".3" stop-color="#fff"/>
      <stop offset=".6" stop-color="#f9b12a"/>
      <stop offset="1" stop-color="#6f0400"/>
    </radialGradient>
    <radialGradient id="radial-gradient1" cx="118.3" cy="71.6" fx="118.3" fy="71.6" r="54.1" xlink:href="#radial-gradient"/>
    <radialGradient id="radial-gradient2" cx="62.9" cy="-17.3" fx="62.9" fy="-17.3" r="112.5" xlink:href="#radial-gradient"/>
    <radialGradient id="radial-gradient3" cx="25.5" cy="94.5" fx="25.5" fy="94.5" r="48.3" gradientUnits="userSpaceOnUse">
      <stop offset=".1" stop-color="#fff"/>
      <stop offset=".5" stop-color="#e82d89"/>
      <stop offset="1" stop-color="#67358c"/>
    </radialGradient>
    <radialGradient id="radial-gradient4" cx="54.3" cy="6.2" fx="54.3" fy="6.2" r="88.3" xlink:href="#radial-gradient3"/>
  </defs>
  <g>
    <g>
      <path class="st4" d="M61.7,1.3c-8.9,22,7.2,22.3,22.2,24.8-3.8-.6-6.8-2.8-8.6-6.3L65.9,1.3c-.9-1.7-3.3-1.7-4.2,0h0Z"/>
      <path class="st0" d="M104.5,29.3c-26.9.6-23.1,31.2-35.4,42.5l18.5,9.4c1.7.9,3.7-.6,3.4-2.5l-3.2-20.5c-.6-3.8.6-7.4,3.3-10.1l14.7-14.7c1.3-1.4.6-3.7-1.3-4h0Z"/>
      <path class="st2" d="M69.2,71.8c12.3-11.3,8.5-41.9,35.4-42.5-6.9-1.1-13.7-2.2-20.6-3.3-15.1-2.5-31.1-2.7-22.2-24.8l-9.5,18.5c22.1,7.3,25.2,29.5,6.8,51.8,3.3-1.5,6.8-1.4,10.1.3h0Z"/>
    </g>
    <g>
      <path class="st1" d="M46.5,77.9c11.8-10.7-.5-20.7-10.1-29.8,2.7,2.7,3.9,6.3,3.3,10.1l-3.2,20.5c-.3,1.9,1.7,3.3,3.4,2.5l6.6-3.3Z"/>
      <path class="st3" d="M36.5,48.1c9.6,9.1,21.9,19.1,10.1,29.8,23.1-16,24.3-51.2-2.9-51.8l-20.5,3.3c-1.9.3-2.7,2.6-1.3,4l14.7,14.7Z"/>
    </g>
  </g>
  <g>
    <path class="st6" d="M0,95.4c0-2.6,2-4.5,4.7-4.5s4.7,1.9,4.7,4.5-2,4.5-4.7,4.5-4.7-1.9-4.7-4.5ZM7.4,95.4c0-1.6-1.2-2.8-2.7-2.8s-2.7,1.1-2.7,2.8,1.2,2.8,2.7,2.8,2.7-1.1,2.7-2.8Z"/>
    <path class="st6" d="M18.5,94.3c0,1.9-1.4,3.1-3.8,3.1h-1.7v2.4h-2v-8.6h3.7c2.3,0,3.8,1.2,3.8,3.1ZM16.4,94.3c0-1-.6-1.5-1.8-1.5h-1.6v3h1.6c1.2,0,1.8-.6,1.8-1.5Z"/>
    <path class="st6" d="M26.6,98.2v1.6h-6.7v-8.6h6.5v1.6h-4.5v1.9h4v1.6h-4v2h4.7Z"/>
    <path class="st6" d="M36.1,91.1v8.6h-1.6l-4.3-5.2v5.2h-2v-8.6h1.7l4.3,5.2v-5.2h2Z"/>
    <path class="st6" d="M49.6,97.4c0,1.5-1.2,2.4-3.5,2.4h-4.5v-8.6h4.2c2.2,0,3.3.9,3.3,2.2s-.4,1.5-1.1,1.9c1,.3,1.6,1,1.6,2.1ZM43.6,92.6v2h2c1,0,1.5-.3,1.5-1s-.5-1-1.5-1h-2ZM47.6,97.2c0-.7-.6-1.1-1.6-1.1h-2.3v2.1h2.3c1,0,1.6-.3,1.6-1.1Z"/>
    <path class="st6" d="M57.8,98.2v1.6h-6.7v-8.6h6.5v1.6h-4.5v1.9h4v1.6h-4v2h4.7Z"/>
    <path class="st6" d="M59.4,91.1h2v7h4.3v1.6h-6.3v-8.6Z"/>
    <path class="st6" d="M66.8,91.1h2v7h4.3v1.6h-6.3v-8.6Z"/>
    <path class="st6" d="M77.6,96.7v3.1h-2v-3.1l-3.3-5.6h2.1l2.3,3.8,2.3-3.8h2l-3.4,5.6Z"/>
    <path class="st6" d="M81.7,91.1h3.9c2.8,0,4.8,1.7,4.8,4.3s-1.9,4.3-4.8,4.3h-3.9v-8.6ZM85.5,98.1c1.7,0,2.8-1,2.8-2.7s-1.1-2.7-2.8-2.7h-1.8v5.4h1.8Z"/>
    <path class="st6" d="M97.4,97.9h-4l-.8,1.9h-2l3.9-8.6h2l3.9,8.6h-2.1l-.8-1.9ZM96.8,96.4l-1.4-3.3-1.4,3.3h2.7Z"/>
    <path class="st6" d="M109.1,91.1v8.6h-1.6l-4.3-5.2v5.2h-2v-8.6h1.7l4.3,5.2v-5.2h2Z"/>
    <path class="st6" d="M110.7,95.4c0-2.6,2-4.5,4.7-4.5s2.7.5,3.6,1.5l-1.3,1.2c-.6-.7-1.3-1-2.2-1-1.6,0-2.8,1.1-2.8,2.8s1.1,2.8,2.8,2.8,1.6-.3,2.2-1l1.3,1.2c-.8,1-2.1,1.5-3.6,1.5-2.7,0-4.7-1.9-4.7-4.5Z"/>
    <path class="st6" d="M126.9,98.2v1.6h-6.7v-8.6h6.5v1.6h-4.5v1.9h4v1.6h-4v2h4.7Z"/>
    <path class="st5" d="M0,108c0-2.8,2.2-4.9,5.1-4.9s3,.6,3.9,1.7l-1.4,1.3c-.6-.7-1.4-1.1-2.4-1.1-1.8,0-3,1.2-3,3s1.3,3,3,3,1.7-.4,2.4-1.1l1.4,1.3c-.9,1.1-2.3,1.7-3.9,1.7-2.9,0-5.1-2-5.1-4.9Z"/>
    <path class="st5" d="M20.5,103.3v9.5h-2.2v-3.9h-4.3v3.9h-2.2v-9.5h2.2v3.7h4.3v-3.7h2.2Z"/>
    <path class="st5" d="M30.2,110.7h-4.4l-.8,2h-2.2l4.2-9.5h2.2l4.2,9.5h-2.3l-.8-2ZM29.5,109.1l-1.5-3.6-1.5,3.6h3Z"/>
    <path class="st5" d="M44.2,112.8v-5.7s-2.8,4.7-2.8,4.7h-1l-2.8-4.6v5.5h-2.1v-9.5h1.8l3.5,5.9,3.5-5.9h1.8v9.5s-2,0-2,0Z"/>
    <path class="st5" d="M58,106.7c0,2.1-1.6,3.4-4.1,3.4h-1.9v2.6h-2.2v-9.5h4.1c2.5,0,4.1,1.3,4.1,3.4ZM55.8,106.7c0-1-.7-1.6-2-1.6h-1.8v3.3h1.8c1.3,0,2-.6,2-1.6Z"/>
    <path class="st5" d="M60.8,103.3h2.2v9.5h-2.2v-9.5Z"/>
    <path class="st5" d="M66,108c0-2.8,2.2-4.9,5.2-4.9s5.2,2.1,5.2,4.9-2.2,4.9-5.2,4.9-5.2-2.1-5.2-4.9ZM74.1,108c0-1.8-1.3-3-3-3s-3,1.2-3,3,1.3,3,3,3,3-1.2,3-3Z"/>
    <path class="st5" d="M87.9,103.3v9.5h-1.8l-4.7-5.7v5.7h-2.2v-9.5h1.8l4.7,5.7v-5.7h2.2Z"/>
    <path class="st5" d="M90.7,111.8l.7-1.6c.8.6,2,1,3.1,1s1.8-.4,1.8-1c0-1.8-5.5-.6-5.5-4.1s1.3-2.9,4-2.9,2.4.3,3.3.8l-.7,1.7c-.9-.5-1.8-.7-2.6-.7-1.3,0-1.8.5-1.8,1.1,0,1.7,5.5.5,5.5,4s-1.3,2.9-4,2.9-3-.4-3.8-1.1Z"/>
    <path class="st5" d="M110,103.3v9.5h-2.2v-3.9h-4.3v3.9h-2.2v-9.5h2.2v3.7h4.3v-3.7h2.2Z"/>
    <path class="st5" d="M113.5,103.3h2.2v9.5h-2.2v-9.5Z"/>
    <path class="st5" d="M127.4,106.7c0,2.1-1.6,3.4-4.1,3.4h-1.9v2.6h-2.2v-9.5h4.1c2.5,0,4.1,1.3,4.1,3.4ZM125.2,106.7c0-1-.7-1.6-2-1.6h-1.8v3.3h1.8c1.3,0,2-.6,2-1.6Z"/>
  </g>
</svg>