<?xml version="1.0" encoding="utf-8"?>
<!-- Generator: Adobe Illustrator 27.5.0, SVG Export Plug-In . SVG Version: 6.00 Build 0)  -->
<svg version="1.1" id="Layer_2_00000114756528809916875490000002293545720232282256_"
	 xmlns="http://www.w3.org/2000/svg" xmlns:xlink="http://www.w3.org/1999/xlink" x="0px" y="0px" viewBox="0 0 128 110.2"
	 style="enable-background:new 0 0 128 110.2;" xml:space="preserve">
<style type="text/css">
	.st0{fill-rule:evenodd;clip-rule:evenodd;fill:url(#SVGID_1_);}
	.st1{fill-rule:evenodd;clip-rule:evenodd;fill:url(#SVGID_00000124850571968126546960000015269661903608165822_);}
	.st2{fill-rule:evenodd;clip-rule:evenodd;fill:url(#SVGID_00000133487993147397983270000016454717698132036777_);}
	.st3{fill-rule:evenodd;clip-rule:evenodd;fill:url(#SVGID_00000079467806571459448610000011172076685302199185_);}
	.st4{fill-rule:evenodd;clip-rule:evenodd;fill:url(#SVGID_00000141456107405861227030000001441255031304015242_);}
	.st5{fill:#FFFFFF;}
	.st6{fill:#F9B12A;}
</style>
<g id="Layer_1-2">
	
		<radialGradient id="SVGID_1_" cx="68.64" cy="154.2448" r="41.26" gradientTransform="matrix(1 0 0 -1 -5.960464e-08 141.8998)" gradientUnits="userSpaceOnUse">
		<stop  offset="0.26" style="stop-color:#FFFFFF"/>
		<stop  offset="0.59" style="stop-color:#F9B12A"/>
		<stop  offset="1" style="stop-color:#6F0400"/>
	</radialGradient>
	<path class="st0" d="M61.9,1.3C53,23.3,69,23.6,84.1,26c-3.8-0.6-6.8-2.8-8.6-6.2L66.1,1.3C65.2-0.4,62.7-0.4,61.9,1.3L61.9,1.3
		L61.9,1.3z"/>
	
		<radialGradient id="SVGID_00000093167122486949551960000000797804493230243219_" cx="118.47" cy="70.3348" r="54.05" gradientTransform="matrix(1 0 0 -1 -5.960464e-08 141.8998)" gradientUnits="userSpaceOnUse">
		<stop  offset="0.26" style="stop-color:#FFFFFF"/>
		<stop  offset="0.59" style="stop-color:#F9B12A"/>
		<stop  offset="1" style="stop-color:#6F0400"/>
	</radialGradient>
	<path style="fill-rule:evenodd;clip-rule:evenodd;fill:url(#SVGID_00000093167122486949551960000000797804493230243219_);" d="
		M104.7,29.3c-26.9,0.5-23.1,31.2-35.4,42.5l18.5,9.4c1.7,0.9,3.7-0.6,3.4-2.5L88,58.2c-0.6-3.8,0.6-7.4,3.3-10.1L106,33.3
		C107.3,32,106.6,29.7,104.7,29.3L104.7,29.3L104.7,29.3z"/>
	
		<radialGradient id="SVGID_00000016789946902276737010000015562097950722427783_" cx="63.06" cy="159.2248" r="112.48" gradientTransform="matrix(1 0 0 -1 -5.960464e-08 141.8998)" gradientUnits="userSpaceOnUse">
		<stop  offset="0.26" style="stop-color:#FFFFFF"/>
		<stop  offset="0.59" style="stop-color:#F9B12A"/>
		<stop  offset="1" style="stop-color:#6F0400"/>
	</radialGradient>
	<path style="fill-rule:evenodd;clip-rule:evenodd;fill:url(#SVGID_00000016789946902276737010000015562097950722427783_);" d="
		M69.3,71.8c12.3-11.3,8.5-41.9,35.4-42.5C97.8,28.2,91,27.1,84.1,26C69.1,23.6,53,23.3,61.9,1.3l-9.5,18.5
		c22.1,7.3,25.2,29.5,6.8,51.8C62.5,70.1,66,70.2,69.3,71.8L69.3,71.8L69.3,71.8z"/>
	
		<radialGradient id="SVGID_00000041979865960056979260000017966746852684155785_" cx="25.69" cy="47.4148" r="48.34" gradientTransform="matrix(1 0 0 -1 -5.960464e-08 141.8998)" gradientUnits="userSpaceOnUse">
		<stop  offset="0.13" style="stop-color:#FFFFFF"/>
		<stop  offset="0.55" style="stop-color:#E82D89"/>
		<stop  offset="0.96" style="stop-color:#67358C"/>
	</radialGradient>
	<path style="fill-rule:evenodd;clip-rule:evenodd;fill:url(#SVGID_00000041979865960056979260000017966746852684155785_);" d="
		M46.7,77.9c11.8-10.7-0.5-20.7-10.1-29.8c2.7,2.8,3.9,6.3,3.3,10.1l-3.2,20.5c-0.3,1.9,1.7,3.3,3.4,2.5L46.7,77.9L46.7,77.9z"/>
	
		<radialGradient id="SVGID_00000104699209445330008320000003261569893180335779_" cx="54.49" cy="135.7048" r="88.3" gradientTransform="matrix(1 0 0 -1 -5.960464e-08 141.8998)" gradientUnits="userSpaceOnUse">
		<stop  offset="0.13" style="stop-color:#FFFFFF"/>
		<stop  offset="0.55" style="stop-color:#E82D89"/>
		<stop  offset="0.96" style="stop-color:#67358C"/>
	</radialGradient>
	<path style="fill-rule:evenodd;clip-rule:evenodd;fill:url(#SVGID_00000104699209445330008320000003261569893180335779_);" d="
		M36.6,48.1c9.6,9.1,21.9,19.1,10.1,29.8C69.8,61.9,71,26.7,43.8,26l-20.5,3.3c-1.9,0.3-2.7,2.6-1.3,4L36.6,48.1L36.6,48.1z"/>
	<path class="st5" d="M2.5,99.3c-0.7-0.4-1.3-0.9-1.7-1.6s-0.6-1.4-0.6-2.3s0.2-1.6,0.6-2.3s1-1.2,1.7-1.6S4,91,4.9,91
		s1.7,0.2,2.4,0.6C8,91.9,8.6,92.5,9,93.2s0.6,1.4,0.6,2.3S9.4,97.1,9,97.7s-1,1.2-1.7,1.6c-0.7,0.4-1.5,0.6-2.4,0.6
		S3.2,99.7,2.5,99.3z M6.3,97.9c0.4-0.2,0.7-0.6,1-1c0.2-0.4,0.3-0.9,0.3-1.4s-0.1-1-0.3-1.4c-0.2-0.4-0.6-0.8-1-1
		c-0.4-0.2-0.9-0.3-1.4-0.3s-1,0.1-1.4,0.3c-0.4,0.2-0.7,0.6-1,1s-0.3,0.9-0.3,1.4s0.1,1,0.3,1.4s0.6,0.8,1,1s0.9,0.3,1.4,0.3
		S5.9,98.1,6.3,97.9z"/>
	<path class="st5" d="M16.9,91.5c0.6,0.2,1,0.6,1.3,1.1c0.3,0.5,0.5,1,0.5,1.7s-0.1,1.2-0.5,1.7c-0.3,0.5-0.7,0.8-1.3,1.1
		s-1.2,0.4-2,0.4h-1.7v2.4h-2v-8.7h3.7C15.6,91.1,16.3,91.3,16.9,91.5L16.9,91.5z M16.1,95.4c0.3-0.3,0.5-0.6,0.5-1.1
		s-0.2-0.9-0.5-1.1c-0.3-0.3-0.8-0.4-1.4-0.4h-1.6v3h1.6C15.3,95.7,15.8,95.6,16.1,95.4L16.1,95.4z"/>
	<path class="st5" d="M26.7,98.2v1.6H20v-8.7h6.5v1.6H22v1.9h4v1.6h-4v2L26.7,98.2L26.7,98.2z"/>
	<path class="st5" d="M36.2,91.1v8.7h-1.6l-4.3-5.2v5.2h-2v-8.7H30l4.3,5.2v-5.2H36.2L36.2,91.1z"/>
	<path class="st6" d="M49.3,96.1c0.3,0.4,0.4,0.8,0.4,1.3c0,0.8-0.3,1.3-0.9,1.8s-1.5,0.6-2.6,0.6h-4.5v-8.7H46c1,0,1.9,0.2,2.4,0.6
		c0.6,0.4,0.8,0.9,0.8,1.6c0,0.4-0.1,0.8-0.3,1.1s-0.5,0.6-0.8,0.8C48.6,95.4,49,95.7,49.3,96.1L49.3,96.1z M43.8,92.6v2h2
		c0.5,0,0.9-0.1,1.1-0.3s0.4-0.4,0.4-0.8s-0.1-0.6-0.4-0.8s-0.6-0.2-1.1-0.2H43.8z M47.3,98c0.3-0.2,0.4-0.4,0.4-0.8
		c0-0.7-0.5-1.1-1.6-1.1h-2.3v2.1h2.3C46.7,98.3,47,98.2,47.3,98L47.3,98z"/>
	<path class="st6" d="M57.9,98.2v1.6h-6.7v-8.7h6.5v1.6h-4.5v1.9h4v1.6h-4v2L57.9,98.2L57.9,98.2z"/>
	<path class="st6" d="M59.5,91.1h2v7h4.3v1.6h-6.3L59.5,91.1L59.5,91.1z"/>
	<path class="st6" d="M67,91.1h2v7h4.3v1.6H67L67,91.1L67,91.1z"/>
	<path class="st6" d="M77.7,96.7v3.1h-2v-3.1l-3.3-5.6h2.1l2.3,3.8l2.3-3.8h2L77.7,96.7L77.7,96.7z"/>
	<path class="st6" d="M81.8,91.1h3.9c0.9,0,1.8,0.2,2.5,0.5s1.3,0.9,1.7,1.5s0.6,1.4,0.6,2.3s-0.2,1.6-0.6,2.3s-1,1.2-1.7,1.5
		s-1.6,0.5-2.5,0.5h-3.9V91.1L81.8,91.1z M85.7,98.1c0.9,0,1.6-0.2,2.1-0.7s0.8-1.1,0.8-2s-0.3-1.5-0.8-2c-0.5-0.5-1.2-0.7-2.1-0.7
		h-1.8v5.4H85.7z"/>
	<path class="st6" d="M97.6,97.9h-4l-0.8,1.8h-2.1l3.8-8.7h2l3.9,8.7h-2.1C98.4,99.8,97.6,97.9,97.6,97.9z M97,96.4l-1.4-3.3
		l-1.4,3.3C94.2,96.4,97,96.4,97,96.4z"/>
	<path class="st6" d="M109.3,91.1v8.7h-1.6l-4.3-5.2v5.2h-2v-8.7h1.7l4.3,5.2v-5.2H109.3L109.3,91.1z"/>
	<path class="st6" d="M113.1,99.3c-0.7-0.4-1.3-0.9-1.7-1.6c-0.4-0.7-0.6-1.4-0.6-2.3s0.2-1.6,0.6-2.3s1-1.2,1.7-1.6
		s1.5-0.6,2.4-0.6c0.8,0,1.4,0.1,2,0.4s1.1,0.6,1.5,1.1l-1.3,1.2c-0.6-0.7-1.3-1-2.2-1c-0.5,0-1,0.1-1.4,0.3c-0.4,0.2-0.8,0.6-1,1
		s-0.3,0.9-0.3,1.4s0.1,1,0.3,1.4c0.2,0.4,0.6,0.8,1,1s0.9,0.3,1.4,0.3c0.9,0,1.6-0.3,2.2-1l1.3,1.2c-0.4,0.5-0.9,0.9-1.5,1.2
		s-1.3,0.4-2,0.4C114.6,100,113.8,99.8,113.1,99.3L113.1,99.3z"/>
	<path class="st6" d="M127.1,98.2v1.6h-6.7v-8.7h6.5v1.6h-4.5v1.9h4v1.6h-4v2L127.1,98.2L127.1,98.2z"/>
	<path class="st6" d="M1.6,109.8c-0.5-0.3-0.9-0.6-1.2-1.1s-0.4-1-0.4-1.6s0.1-1.1,0.4-1.6c0.3-0.5,0.7-0.8,1.2-1.1
		c0.5-0.3,1.1-0.4,1.7-0.4c0.5,0,1,0.1,1.4,0.3s0.8,0.4,1.1,0.8l-0.9,0.8c-0.4-0.5-0.9-0.7-1.5-0.7c-0.4,0-0.7,0.1-1,0.2
		c-0.3,0.2-0.5,0.4-0.7,0.7s-0.2,0.6-0.2,1s0.1,0.7,0.2,1c0.2,0.3,0.4,0.5,0.7,0.7s0.6,0.2,1,0.2c0.6,0,1.1-0.2,1.5-0.7l0.9,0.8
		c-0.3,0.3-0.6,0.6-1.1,0.8c-0.4,0.2-0.9,0.3-1.4,0.3C2.6,110.2,2.1,110.1,1.6,109.8L1.6,109.8z"/>
	<path class="st6" d="M12.1,104.1v6h-1.4v-2.5H8v2.5H6.6v-6H8v2.4h2.7v-2.4H12.1z"/>
	<path class="st6" d="M17.5,108.8h-2.8l-0.5,1.3h-1.4l2.7-6h1.4l2.7,6H18C18,110.1,17.5,108.8,17.5,108.8z M17,107.7l-1-2.3l-1,2.3
		H17L17,107.7z"/>
	<path class="st6" d="M25.5,110.1v-3.6l-1.8,3h-0.6l-1.8-2.9v3.5H20v-6h1.1l2.2,3.7l2.2-3.7h1.1l0,6L25.5,110.1L25.5,110.1z"/>
	<path class="st6" d="M32.2,104.3c0.4,0.2,0.7,0.4,0.9,0.8s0.3,0.7,0.3,1.2s-0.1,0.8-0.3,1.2s-0.5,0.6-0.9,0.8s-0.9,0.3-1.4,0.3
		h-1.2v1.7h-1.4v-6h2.6C31.3,104.1,31.8,104.2,32.2,104.3L32.2,104.3z M31.7,107c0.2-0.2,0.3-0.4,0.3-0.8s-0.1-0.6-0.3-0.8
		s-0.5-0.3-1-0.3h-1.1v2.1h1.1C31.1,107.3,31.5,107.2,31.7,107z"/>
	<path class="st6" d="M34.3,104.1h1.4v6h-1.4V104.1z"/>
	<path class="st6" d="M38.3,109.8c-0.5-0.3-0.9-0.6-1.2-1.1c-0.3-0.5-0.4-1-0.4-1.6s0.1-1.1,0.4-1.6c0.3-0.5,0.7-0.8,1.2-1.1
		s1.1-0.4,1.7-0.4s1.2,0.1,1.7,0.4s0.9,0.6,1.2,1.1s0.4,1,0.4,1.6s-0.1,1.1-0.4,1.6c-0.3,0.5-0.7,0.8-1.2,1.1s-1.1,0.4-1.7,0.4
		S38.8,110.1,38.3,109.8z M41,108.8c0.3-0.2,0.5-0.4,0.7-0.7s0.2-0.6,0.2-1s-0.1-0.7-0.2-1c-0.2-0.3-0.4-0.5-0.7-0.7
		c-0.3-0.2-0.6-0.2-1-0.2s-0.7,0.1-1,0.2c-0.3,0.2-0.5,0.4-0.7,0.7c-0.2,0.3-0.2,0.6-0.2,1s0.1,0.7,0.2,1c0.2,0.3,0.4,0.5,0.7,0.7
		s0.6,0.2,1,0.2S40.7,108.9,41,108.8z"/>
	<path class="st6" d="M49.8,104.1v6h-1.1l-3-3.7v3.7h-1.4v-6h1.2l3,3.7v-3.7C48.5,104.1,49.8,104.1,49.8,104.1z"/>
	<path class="st6" d="M51.8,110c-0.4-0.1-0.8-0.3-1.1-0.5l0.5-1.1c0.3,0.2,0.6,0.3,0.9,0.5c0.4,0.1,0.7,0.2,1.1,0.2
		c0.4,0,0.7-0.1,0.9-0.2c0.2-0.1,0.3-0.3,0.3-0.5c0-0.1-0.1-0.3-0.2-0.4c-0.1-0.1-0.2-0.2-0.4-0.2s-0.4-0.1-0.7-0.2
		c-0.5-0.1-0.8-0.2-1.1-0.3c-0.3-0.1-0.5-0.3-0.8-0.5s-0.3-0.6-0.3-1c0-0.3,0.1-0.7,0.3-0.9s0.5-0.5,0.9-0.7
		c0.4-0.2,0.8-0.2,1.4-0.2c0.4,0,0.8,0.1,1.1,0.1c0.4,0.1,0.7,0.2,1,0.4l-0.4,1.1c-0.6-0.3-1.1-0.5-1.7-0.5c-0.4,0-0.7,0.1-0.9,0.2
		c-0.2,0.1-0.3,0.3-0.3,0.5s0.1,0.4,0.3,0.5s0.5,0.2,1,0.3c0.5,0.1,0.8,0.2,1.1,0.3c0.3,0.1,0.5,0.3,0.8,0.5s0.3,0.6,0.3,1
		c0,0.3-0.1,0.7-0.3,0.9c-0.2,0.3-0.5,0.5-0.9,0.7c-0.4,0.2-0.8,0.2-1.4,0.2C52.7,110.2,52.2,110.2,51.8,110L51.8,110z"/>
	<path class="st6" d="M62.2,104.1v6h-1.4v-2.5H58v2.5h-1.4v-6H58v2.4h2.7v-2.4H62.2z"/>
	<path class="st6" d="M63.5,104.1h1.4v6h-1.4C63.5,110.1,63.5,104.1,63.5,104.1z"/>
	<path class="st6" d="M70.3,104.3c0.4,0.2,0.7,0.4,0.9,0.8s0.3,0.7,0.3,1.2s-0.1,0.8-0.3,1.2s-0.5,0.6-0.9,0.8s-0.9,0.3-1.4,0.3
		h-1.2v1.7h-1.4v-6h2.6C69.4,104.1,69.9,104.2,70.3,104.3L70.3,104.3z M69.8,107c0.2-0.2,0.3-0.4,0.3-0.8s-0.1-0.6-0.3-0.8
		s-0.5-0.3-1-0.3h-1.1v2.1h1.1C69.2,107.3,69.5,107.2,69.8,107z"/>
	<path class="st5" d="M76.1,109.8c-0.5-0.3-0.9-0.6-1.2-1.1c-0.3-0.5-0.4-1-0.4-1.6s0.1-1.1,0.4-1.6c0.3-0.5,0.7-0.8,1.2-1.1
		s1.1-0.4,1.7-0.4s1.2,0.1,1.7,0.4s0.9,0.6,1.2,1.1s0.4,1,0.4,1.6s-0.1,1.1-0.4,1.6c-0.3,0.5-0.7,0.8-1.2,1.1s-1.1,0.4-1.7,0.4
		S76.6,110.1,76.1,109.8z M78.8,108.8c0.3-0.2,0.5-0.4,0.7-0.7c0.2-0.3,0.2-0.6,0.2-1s-0.1-0.7-0.2-1c-0.2-0.3-0.4-0.5-0.7-0.7
		c-0.3-0.2-0.6-0.2-1-0.2s-0.7,0.1-1,0.2c-0.3,0.2-0.5,0.4-0.7,0.7c-0.2,0.3-0.2,0.6-0.2,1s0.1,0.7,0.2,1c0.2,0.3,0.4,0.5,0.7,0.7
		s0.6,0.2,1,0.2S78.5,108.9,78.8,108.8z"/>
	<path class="st5" d="M83.5,105.2v1.6h2.8v1.1h-2.8v2.2h-1.4v-6h4.6v1.1C86.6,105.2,83.5,105.2,83.5,105.2z"/>
	<path class="st5" d="M93.9,104.3c0.4,0.2,0.7,0.4,0.9,0.8s0.3,0.7,0.3,1.2s-0.1,0.8-0.3,1.2s-0.5,0.6-0.9,0.8s-0.9,0.3-1.4,0.3
		h-1.2v1.7h-1.4v-6h2.6C93.1,104.1,93.5,104.2,93.9,104.3L93.9,104.3z M93.4,107c0.2-0.2,0.3-0.4,0.3-0.8s-0.1-0.6-0.3-0.8
		s-0.5-0.3-1-0.3h-1.1v2.1h1.1C92.8,107.3,93.2,107.2,93.4,107z"/>
	<path class="st5" d="M97.4,109.8c-0.5-0.3-0.9-0.6-1.2-1.1c-0.3-0.5-0.4-1-0.4-1.6s0.1-1.1,0.4-1.6c0.3-0.5,0.7-0.8,1.2-1.1
		s1.1-0.4,1.7-0.4s1.2,0.1,1.7,0.4s0.9,0.6,1.2,1.1s0.4,1,0.4,1.6s-0.1,1.1-0.4,1.6c-0.3,0.5-0.7,0.8-1.2,1.1s-1.1,0.4-1.7,0.4
		S97.9,110.1,97.4,109.8z M100,108.8c0.3-0.2,0.5-0.4,0.7-0.7c0.2-0.3,0.2-0.6,0.2-1s-0.1-0.7-0.2-1c-0.2-0.3-0.4-0.5-0.7-0.7
		c-0.3-0.2-0.6-0.2-1-0.2s-0.7,0.1-1,0.2c-0.3,0.2-0.5,0.4-0.7,0.7c-0.2,0.3-0.2,0.6-0.2,1s0.1,0.7,0.2,1c0.2,0.3,0.4,0.5,0.7,0.7
		s0.6,0.2,1,0.2S99.7,108.9,100,108.8z"/>
	<path class="st5" d="M103.3,104.1h1.4v4.9h3v1.1h-4.4V104.1L103.3,104.1z"/>
	<path class="st5" d="M112.5,108.8h-2.8l-0.5,1.3h-1.4l2.7-6h1.4l2.7,6H113L112.5,108.8z M112,107.7l-1-2.3l-1,2.3H112L112,107.7z"
		/>
	<path class="st5" d="M120.6,104.1v6h-1.1l-3-3.7v3.7h-1.4v-6h1.2l3,3.7v-3.7H120.6z"/>
	<path class="st5" d="M121.9,104.1h2.7c0.7,0,1.2,0.1,1.7,0.4s0.9,0.6,1.2,1.1s0.4,1,0.4,1.6s-0.1,1.1-0.4,1.6s-0.7,0.8-1.2,1.1
		s-1.1,0.4-1.7,0.4h-2.7V104.1L121.9,104.1z M124.6,109c0.6,0,1.1-0.2,1.4-0.5s0.5-0.8,0.5-1.4s-0.2-1-0.5-1.4
		c-0.4-0.3-0.8-0.5-1.4-0.5h-1.3v3.7L124.6,109L124.6,109z"/>
</g>
</svg>
